<svg width="14" height="23" viewBox="0 0 14 23" fill="none" xmlns="http://www.w3.org/2000/svg">
<path d="M13.9901 11.9288C13.9901 11.9055 13.4593 8.48236 13.3209 7.45774C13.1363 6.17697 12.2363 5.19892 11.0825 4.91948C10.6209 5.19892 10.0671 5.36193 9.49019 5.36193C8.91328 5.36193 8.35944 5.19892 7.89792 4.91948C6.72102 5.19892 5.84411 6.17697 5.6595 7.45774C5.49796 8.50565 4.99028 11.9055 4.99028 11.9288C4.92105 12.3713 5.22105 12.7904 5.6595 12.8603C6.16718 12.9301 6.51333 12.5808 6.58256 12.185C6.58256 12.1617 7.18255 8.17963 7.25177 7.73718C7.25177 7.7139 7.27485 7.69061 7.29793 7.69061C7.34408 7.69061 7.36716 7.7139 7.36716 7.76047V13.1164L6.65179 20.9874C6.60563 21.5695 7.02101 22.0819 7.59792 22.1284C8.17483 22.175 8.68252 21.7558 8.72867 21.1737C8.72867 21.1737 9.42096 13.5123 9.42096 13.489C9.42096 13.4657 9.51327 13.4657 9.51327 13.489C9.51327 13.5123 10.2056 21.1737 10.2056 21.1737C10.2517 21.7325 10.6671 22.1983 11.3363 22.1284C11.9132 22.0819 12.3286 21.5695 12.2824 20.9874L11.5671 13.1164L11.5901 7.7139C11.5901 7.69061 11.6132 7.66732 11.6363 7.66732C11.6594 7.66732 11.6825 7.69061 11.6825 7.7139C11.7517 8.15634 12.3517 12.1617 12.3517 12.2082C12.4209 12.6041 12.7209 12.9767 13.2747 12.8836C13.7593 12.7904 14.0593 12.3713 13.9901 11.9288Z" fill="#02475B"/>
<ellipse cx="9.49025" cy="2.2645" rx="2.23842" ry="2.25882" fill="#02475B"/>
<path d="M4.36722 18.9613C4.29799 18.8914 4.20569 18.8914 4.15953 18.9613L3.02879 20.1023V2.03177L4.15953 3.17283C4.22876 3.24269 4.32107 3.24269 4.36722 3.17283L4.92106 2.61394C4.99029 2.54408 4.99029 2.45094 4.92106 2.40436L2.59033 0.0523953C2.5211 -0.0174651 2.4288 -0.0174651 2.38265 0.0523953L0.051922 2.40436C-0.0173073 2.47422 -0.0173073 2.56737 0.051922 2.61394L0.605757 3.17283C0.674987 3.24269 0.767292 3.24269 0.813445 3.17283L1.94419 2.03177V20.1023L0.813445 18.9613C0.744216 18.8914 0.65191 18.8914 0.605757 18.9613L0.051922 19.5202C-0.0173073 19.59 -0.0173073 19.6832 0.051922 19.7297L2.38265 22.0817C2.45187 22.1516 2.54418 22.1516 2.59033 22.0817L4.92106 19.7297C4.99029 19.6599 4.99029 19.5667 4.92106 19.5202L4.36722 18.9613Z" fill="#02475B"/>
</svg>
