<svg xmlns="http://www.w3.org/2000/svg" width="24" height="24" viewBox="0 0 24 24">
    <g fill="none" fill-rule="evenodd">
        <path d="M0 0H24V24H0z"/>
        <path fill="#02475B" fill-rule="nonzero" d="M10.644 10.679c.781-.604 1.687-1.057 2.68-1.29V6.078C13.324 3.832 11.496 2 9.247 2H8.082C5.832 2 4 3.832 4 6.078v4.601h6.644zm-2.736 5.548c0-1.299.369-2.504.984-3.548H4v5.243C4 20.172 5.832 22 8.082 22h1.165c.477 0 .936-.085 1.364-.236-1.645-1.285-2.703-3.287-2.703-5.537zm11.699-3.151l-7.711 7.711c.894.62 1.978.984 3.148.984 3.063 0 5.546-2.484 5.546-5.546 0-1.17-.364-2.254-.983-3.149zm-9.125 6.297c-.619-.894-.984-1.978-.984-3.148 0-3.063 2.484-5.546 5.546-5.546 1.17 0 2.254.364 3.149.983l-7.711 7.711z"/>
    </g>
</svg>
