<svg width="14" height="14" viewBox="0 0 14 14" fill="none" xmlns="http://www.w3.org/2000/svg">
<path fill-rule="evenodd" clip-rule="evenodd" d="M7.4375 6.34375H6.5625V14H0V0H14V14H7.4375V6.34375ZM8.75 12.0312H12.6875V11.1562H8.75V12.0312ZM12.6875 10.2812H8.75V9.40625H12.6875V10.2812ZM8.75 8.53125H12.6875V7.65625H8.75V8.53125ZM11.375 1.96859L10.0625 5.46859H3.9375L2.625 1.96859C5.62187 0.524844 8.53125 0.50297 11.375 1.96859ZM1.3125 12.0312H5.25V11.1562H1.3125V12.0312ZM5.25 10.2812H1.3125V9.40625H5.25V10.2812ZM1.3125 8.53125H5.25V7.65625H1.3125V8.53125Z" fill="#02475B"/>
<path d="M7 1.75L6.34375 4.59375H7.65625L7 1.75Z" fill="#02475B"/>
</svg>
