<svg xmlns="http://www.w3.org/2000/svg" width="24" height="24" viewBox="0 0 24 24">
    <g fill="none" fill-rule="evenodd">
        <g fill-rule="nonzero">
            <path fill="#FFECCD" d="M4.394 23.972c-.534-.001-.966-.43-.968-.96v-4.836c-.029-.622-.213-1.227-.538-1.76 0 0-1.627-2.417-1.627-4.467 0-4.16 3.398-7.532 7.589-7.532h.082c1.81-.003 3.573.65 4.954 1.858 1.634 1.43 2.57 3.5 2.568 5.674v.406l-.094.786.431.858 1.267 2.52c.217.432.036.793-.403.85-.04.005-.085.008-.13.008h-.213l-.057.002c-.499.034-.893.45-.895.958v2.599c-.001.53-.43.959-.959.96h-1.615c-.53.002-.958.431-.96.961v.155c0 .53-.43.959-.958.96H4.394z" transform="translate(3)"/>
            <path fill="#FDD79C" d="M5.379 23.012v-4.836c-.028-.622-.21-1.227-.528-1.76 0 0-1.597-2.417-1.597-4.467 0-3.77 2.757-6.959 6.451-7.463-2.13-.294-4.281.358-5.9 1.789-1.619 1.43-2.547 3.5-2.544 5.674 0 2.05 1.597 4.468 1.597 4.468.318.532.5 1.137.528 1.759v4.836c.002.53.426.959.95.96h1.993c-.524-.001-.949-.43-.95-.96z" transform="translate(3)"/>
            <path fill="#527992" d="M9.26 7.972v3.556H5.706c0 1.438.867 2.734 2.195 3.285 1.329.55 2.858.246 3.875-.771s1.321-2.546.77-3.875c-.55-1.329-1.846-2.195-3.284-2.195z" transform="translate(3)"/>
            <path fill="#FC4C8A" d="M8.817 7.972c-1.719 0-3.112 1.393-3.112 3.111h3.112v-3.11zM16.61 3.5c.432 0 .782.348.782.777 0 .429-.35.776-.782.776-.155 0-.3-.045-.422-.123l-.732.726c-.03.031-.073.048-.117.048-.067 0-.128-.04-.154-.101-.025-.062-.011-.133.037-.18l.73-.727c-.078-.12-.123-.265-.123-.42 0-.428.35-.775.781-.775zM.781 3.5c.432 0 .782.348.782.777 0 .154-.046.298-.124.42l.731.726c.063.065.062.167-.002.231s-.167.065-.232.002l-.731-.727c-.122.079-.268.124-.424.124C.35 5.053 0 4.706 0 4.277 0 3.848.35 3.5.781 3.5zM8.696 0c.431 0 .781.347.781.776 0 .372-.263.683-.615.759v1.542c0 .091-.075.165-.166.165-.092 0-.166-.074-.166-.165l-.001-1.542c-.352-.076-.615-.387-.615-.759 0-.429.35-.776.782-.776z" transform="translate(3)"/>
        </g>
        <path d="M0 0H24V24H0z"/>
    </g>
</svg>
