<svg width="16" height="14" viewBox="0 0 16 14" fill="none" xmlns="http://www.w3.org/2000/svg">
<path fill-rule="evenodd" clip-rule="evenodd" d="M9.6326 0H1.3674C0.610743 0 0 0.609069 0 1.36366V6.81828C0 7.57281 0.610743 8.18194 1.3674 8.18194H1.8232V9.54559C1.8232 9.87399 2.16417 10.1118 2.49779 9.9456C2.50234 9.94106 2.50918 9.93878 2.51601 9.93651C2.52287 9.93423 2.52972 9.93195 2.53428 9.92739C3.19333 9.48664 3.64033 9.18757 3.95142 8.97944C4.50742 8.60744 4.62926 8.52592 4.75161 8.44518C4.78591 8.42254 4.82026 8.39997 4.86421 8.37107C4.9095 8.3413 4.96501 8.30481 5.04119 8.25463C5.11409 8.20918 5.19613 8.18194 5.28729 8.18194H9.6326C10.3893 8.18194 11 7.57281 11 6.81828V1.36366C11 0.609069 10.3893 0 9.6326 0ZM5.98619 5.45462H2.27901C1.67817 5.45462 1.67571 4.54552 2.27901 4.54552H5.98619C6.58702 4.54552 6.58949 5.45462 5.98619 5.45462ZM2.27901 3.63642H8.72099C9.32429 3.63642 9.32183 2.72731 8.72099 2.72731H2.27901C1.67571 2.72731 1.67817 3.63642 2.27901 3.63642Z" fill="#67919D"/>
<path d="M14.1326 3.5H11.8536V6.68224C11.8536 7.93695 10.8326 8.95526 9.57459 8.95526H5.36602L4.5 9.52807V10.3191C4.5 11.0737 5.11074 11.6829 5.8674 11.6829H10.3494L12.9657 13.4285C13.3228 13.6263 13.6768 13.3858 13.6768 13.0467V11.6829H14.1326C14.8893 11.6829 15.5 11.0737 15.5 10.3191V4.86382C15.5 4.10917 14.8893 3.5 14.1326 3.5Z" fill="#67919D"/>
</svg>
