<svg width="12" height="18" viewBox="0 0 12 18" fill="none" xmlns="http://www.w3.org/2000/svg">
<path d="M11.1966 1.31172V1.31165C11.196 0.53229 10.5646 -0.1 9.78605 -0.1H2.21225C1.43247 -0.1 0.802794 0.532405 0.802794 1.31172V16.69C0.802794 17.4671 1.43253 18.1 2.21225 18.1H9.78605C10.5644 18.1 11.1966 17.4678 11.1966 16.69V1.31172ZM8.92198 0.920894L8.92229 0.920893C9.05196 0.920495 9.15773 1.02604 9.15773 1.15607C9.15773 1.28571 9.05172 1.39124 8.92198 1.39124C8.7919 1.39124 8.68624 1.28536 8.68624 1.15607C8.68624 1.02678 8.7919 0.920893 8.92198 0.920894ZM10.0144 14.4841H1.98503V2.31272H10.0144V14.4841ZM7.65527 1.23104H4.34374V1.04815H7.65554L7.65527 1.23104ZM7.49776 16.5025H4.49997V15.7186H7.49776V16.5025Z" fill="#67919D" stroke="#67919D" stroke-width="0.2"/>
</svg>
