<svg xmlns="http://www.w3.org/2000/svg" width="20" height="20" viewBox="0 0 20 20">
    <g fill="none" fill-rule="evenodd">
        <path fill="#00B38E" fill-rule="nonzero" d="M8.676 1.667c3.872 0 7.01 3.138 7.01 7.01 0 1.635-.56 3.14-1.499 4.333l3.649 3.647c.325.326.325.853 0 1.179-.3.3-.773.323-1.1.07l-.079-.07-3.647-3.649c-1.193.94-2.698 1.5-4.334 1.5-3.87 0-7.01-3.14-7.01-7.01 0-3.872 3.14-7.01 7.01-7.01zm0 1.666c-2.95 0-5.343 2.393-5.343 5.343 0 2.951 2.393 5.344 5.343 5.344 2.951 0 5.344-2.393 5.344-5.344 0-2.95-2.393-5.343-5.344-5.343z"/>
    </g>
</svg>
