<svg width="104" height="92" viewBox="0 0 104 92" fill="none" xmlns="http://www.w3.org/2000/svg">
<path fill-rule="evenodd" clip-rule="evenodd" d="M44.0091 61.2075C43.2814 60.2437 42.361 59.4403 41.306 58.8479C40.0848 58.299 38.757 58.0251 37.4172 58.0457C36.2832 58.0226 35.1579 58.2481 34.1213 58.7063C33.0915 59.2117 32.258 60.0411 31.7501 61.0659V58.7063H26.6521V92H31.9161V75.2942C32.5342 76.2252 33.4061 76.9618 34.4295 77.4178C35.4587 77.9085 36.5843 78.1664 37.7255 78.1729C38.9971 78.1986 40.2567 77.9236 41.4008 77.3706C42.427 76.8264 43.3244 76.0702 44.0328 75.1526C44.7731 74.2226 45.3211 73.1561 45.6452 72.0144C45.9992 70.828 46.1671 69.5944 46.1432 68.357C46.1659 67.0406 45.99 65.7282 45.6215 64.4637C45.2758 63.2942 44.7304 62.1928 44.0091 61.2075ZM0 77.7245L10.0301 51.4152H15.958L25.8459 77.6302H19.7756L17.689 71.7548H7.89603L5.8331 77.6302L0 77.7245ZM12.9466 57.7861L9.4373 67.484H16.3137L12.9466 57.7861ZM39.9781 72.3447C40.3598 71.7597 40.6105 71.0998 40.7132 70.4099C40.998 68.913 40.998 67.3763 40.7132 65.8795C40.5631 65.1917 40.29 64.5363 39.907 63.9446C39.5263 63.3719 39.0245 62.8887 38.4368 62.5289C37.791 62.1754 37.0634 61.9965 36.3265 62.0098C35.5587 61.9909 34.7991 62.1697 34.1213 62.5289C33.5693 62.9086 33.0946 63.389 32.7223 63.9446C32.3908 64.5537 32.1436 65.2045 31.9872 65.8795C31.7024 67.3763 31.7024 68.913 31.9872 70.4099C32.166 71.0884 32.4373 71.7393 32.7934 72.3447C33.1749 72.8979 33.6776 73.3577 34.2635 73.6897C34.9169 74.0482 35.6515 74.235 36.3976 74.2324C37.1603 74.2476 37.9133 74.0603 38.5791 73.6897C39.1228 73.3527 39.578 72.8916 39.907 72.3447H39.9781ZM64.5198 60.8536C63.6263 59.972 62.55 59.2956 61.3661 58.8715C58.7248 57.8656 55.8032 57.8656 53.1618 58.8715C51.981 59.3016 50.9059 59.9773 50.0082 60.8536C49.123 61.7479 48.4505 62.8284 48.0401 64.0154C47.5536 65.3383 47.3048 66.736 47.305 68.1447C47.2621 69.5274 47.4875 70.9054 47.969 72.2031C48.4048 73.371 49.0743 74.4386 49.937 75.3414C50.8347 76.2176 51.9099 76.8933 53.0907 77.3234C54.4037 77.8024 55.7947 78.0345 57.1929 78.0077C58.5912 78.0367 59.9826 77.8046 61.295 77.3234C62.4811 76.9089 63.5578 76.2331 64.4446 75.3464C65.3315 74.4598 66.0056 73.3853 66.4167 72.2031C66.9069 70.8731 67.1558 69.4669 67.1518 68.0503C67.1936 66.6383 66.9434 65.2328 66.4167 63.921C66.0102 62.7597 65.3362 61.7092 64.4487 60.8536H64.5198ZM60.9393 72.2031C61.301 71.5997 61.55 70.9363 61.6744 70.2447C61.8192 69.5222 61.8907 68.787 61.8878 68.0503C61.8964 67.2586 61.8249 66.4681 61.6744 65.6907C61.5498 65.0066 61.3007 64.3509 60.9393 63.7558C60.5806 63.1653 60.0741 62.6775 59.4692 62.3401C58.7343 61.9741 57.9194 61.7957 57.098 61.821C56.3303 61.8021 55.5707 61.9809 54.8928 62.3401C54.3478 62.7204 53.881 63.2009 53.5175 63.7558C53.1358 64.3408 52.8851 65.0007 52.7825 65.6907C52.635 66.4685 52.5635 67.2587 52.5691 68.0503C52.5695 68.7868 52.641 69.5217 52.7825 70.2447C52.8976 70.9387 53.1473 71.6039 53.5175 72.2031C53.8281 72.7919 54.3066 73.2762 54.8928 73.5953C55.5685 73.9627 56.3282 74.1496 57.098 74.138C57.9232 74.1745 58.7429 73.9869 59.4692 73.5953C60.0675 73.2595 60.5726 72.7811 60.9393 72.2031ZM68.6931 77.5358H73.9808V51.3209H68.6931V77.5358ZM82.6119 77.5358H77.3479V51.3209H82.6119V77.5358ZM103.265 63.921C102.858 62.7336 102.186 61.6536 101.299 60.7625C100.412 59.8715 99.3326 59.1926 98.1431 58.7771C95.5018 57.7712 92.5802 57.7712 89.9389 58.7771C88.755 59.2012 87.6787 59.8776 86.7852 60.7592C85.9 61.6535 85.2275 62.734 84.8171 63.921C84.3195 65.2736 84.0706 66.7043 84.082 68.1447C84.0618 69.532 84.3114 70.9101 84.8171 72.2031C85.2587 73.3682 85.9276 74.4347 86.7852 75.3414C87.6787 76.2229 88.755 76.8994 89.9389 77.3234C92.5969 78.2349 95.4851 78.2349 98.1431 77.3234C99.324 76.8933 100.399 76.2176 101.297 75.3414C102.177 74.4519 102.848 73.3804 103.265 72.2031C103.755 70.8731 104.004 69.4669 104 68.0503C103.956 66.6767 103.708 65.317 103.265 64.0154V63.921ZM97.6926 72.2031C98.0439 71.5949 98.2923 70.9332 98.4277 70.2447C98.5806 69.523 98.6601 68.7878 98.6648 68.0503C98.6656 67.2578 98.5861 66.4673 98.4277 65.6907C98.325 65.0007 98.0743 64.3408 97.6926 63.7558C97.3422 63.1669 96.8437 62.679 96.2462 62.3401C95.5113 61.9741 94.6964 61.7957 93.875 61.821C93.1073 61.8021 92.3477 61.9809 91.6698 62.3401C91.0821 62.6999 90.5804 63.1831 90.1997 63.7558C89.8383 64.3509 89.5892 65.0066 89.4646 65.6907C89.3172 66.4685 89.2457 67.2587 89.2512 68.0503C89.2516 68.7868 89.3231 69.5217 89.4646 70.2447C89.6012 70.9329 89.8495 71.5943 90.1997 72.2031C90.5664 72.7811 91.0715 73.2595 91.6698 73.5953C92.3455 73.9627 93.1052 74.1496 93.875 74.138C94.7002 74.1745 95.5199 73.9869 96.2462 73.5953C96.8521 73.2784 97.3541 72.7952 97.6926 72.2031Z" fill="white"/>
<path fill-rule="evenodd" clip-rule="evenodd" d="M46.9494 54.3883L50.0793 56.7479L53.233 54.3883V47.0972H47.0205L46.9494 54.3883ZM53.4701 39.169H45.9772V37.423L28.9284 56.5355H37.9389L46.8782 46.2478H53.4701V39.169ZM53.2567 38.3668H46.9494V32.2083L43.2029 27.1352H56.4578L53.2567 32.2083V38.3668ZM27.8139 16.989H10.5755V46.8377H18.6612L37.4172 26.4037L27.8139 16.989ZM18.8983 27.3711H21.6015V25.0116H18.8983V22.3216H16.5271V25.0116H13.824V27.3711H16.5508V30.0139H18.922L18.8983 27.3711ZM34.9275 45.5163L36.2553 40.9151H38.01V28.1262L19.7045 48.0411V56.7951L28.8573 46.8377H33.1017C33.5188 46.8754 33.9353 46.7592 34.272 46.5112C34.6087 46.2632 34.8419 45.9007 34.9275 45.4927V45.5163ZM34.5718 36.078L35.876 34.7566H33.2439L34.5718 36.078Z" fill="white"/>
<path d="M42.3256 9.43832H42.1122C31.5604 6.77199 30.8965 1.76968 31.181 0C30.4776 2.79245 30.5103 5.71828 31.2759 8.49448C34.068 10.4755 37.3438 11.6735 40.7606 11.9631L42.1122 12.0339C52.735 14.0395 53.6124 22.652 49.7948 26.8048C50.2453 26.0026 54.7031 17.0598 43.7246 15.1721L42.1833 14.9125C34.4058 13.5204 33.7656 12.317 33.3862 12.2462C33.5066 14.5966 34.4537 16.8299 36.062 18.5554C37.6702 20.2809 39.8371 21.3886 42.1833 21.6845C48.9174 22.4868 49.5814 25.8374 49.6525 26.8992C50.6852 26.1286 51.526 25.1319 52.1099 23.9863C52.6937 22.8407 53.005 21.5768 53.0196 20.2924V19.4429C52.8773 15.3137 49.8659 10.8541 42.3256 9.43832Z" fill="white"/>
<path d="M36.6584 87.2808V90.3247H35.6388V82.5145H38.5316C39.2646 82.4628 39.9886 82.7001 40.5472 83.1752C40.791 83.3895 40.9836 83.6555 41.1108 83.9535C41.238 84.2516 41.2965 84.5742 41.2822 84.8977C41.3033 85.2267 41.2504 85.5563 41.1273 85.8624C41.0043 86.1685 40.8142 86.4435 40.5709 86.6673C39.986 87.1065 39.2631 87.324 38.5316 87.2808H36.6584ZM36.6584 86.3606H38.5079C38.9673 86.4002 39.4248 86.2653 39.7884 85.9831C39.9408 85.8376 40.06 85.6611 40.1377 85.4657C40.2155 85.2702 40.25 85.0604 40.2389 84.8505C40.2441 84.6412 40.2069 84.4331 40.1295 84.2385C40.0521 84.0439 39.9361 83.8668 39.7884 83.7179C39.4524 83.4316 39.0212 83.2801 38.5791 83.2931H36.6584V86.3606ZM49.9607 90.2539H48.9174V86.7145H44.9813V90.3247H43.9379V82.5145H44.9813V85.8887H48.9411V82.5145H49.9844L49.9607 90.2539ZM57.5485 88.2247H54.3L53.5412 90.2539H52.4742L55.4856 82.4437H56.3866L59.398 90.2539H58.331L57.5485 88.2247ZM54.5845 87.3752H57.2403L55.9124 83.7179L54.5845 87.3752ZM64.6383 87.0921H62.7414V90.2539H61.6981V82.5145H64.3064C65.0378 82.4713 65.7607 82.6888 66.3456 83.128C66.5898 83.3461 66.7807 83.6167 66.904 83.9192C67.0273 84.2218 67.0796 84.5484 67.0569 84.8741C67.0691 85.3316 66.9272 85.7801 66.6538 86.1482C66.3765 86.5156 65.9974 86.7945 65.5631 86.9505L67.4838 90.2775H66.3693L64.6383 87.0921ZM62.7414 86.3606H64.3301C64.7766 86.3816 65.2153 86.2389 65.5631 85.9595C65.7153 85.829 65.8352 85.6653 65.9133 85.4811C65.9915 85.2969 66.0258 85.0972 66.0136 84.8977C66.0274 84.6931 65.9964 84.488 65.9227 84.2965C65.849 84.105 65.7344 83.9317 65.5868 83.7887C65.2328 83.5037 64.7846 83.3606 64.3301 83.3875H62.7414V86.3606ZM71.1828 82.5381L73.7437 88.9089L76.3283 82.5381H77.6561V90.3483H76.6365V87.2808V84.001L74.0519 90.3247H73.2694L70.8508 84.001V87.2572V90.3011H69.8549V82.5145L71.1828 82.5381ZM85.2676 88.3191H82.0428L81.3077 90.3483H80.217L83.2284 82.5381H84.082L87.0934 90.3483H86.0264L85.2676 88.3191ZM82.2799 87.4696H85.0305L83.6789 83.8123L82.2799 87.4696ZM95.1791 87.8707C95.1255 88.6082 94.7955 89.2988 94.2544 89.8056C93.6719 90.2709 92.9374 90.5062 92.1914 90.4663C91.7683 90.483 91.3471 90.4022 90.9604 90.2303C90.5738 90.0584 90.2323 89.8 89.9625 89.4752C89.3617 88.7193 89.0583 87.7714 89.1089 86.8089V86.0539C89.0997 85.395 89.2374 84.7422 89.512 84.1426C89.7563 83.6225 90.1425 83.181 90.6265 82.8684C91.1297 82.5771 91.7042 82.4301 92.2863 82.4437C93.0218 82.4036 93.7443 82.6489 94.3018 83.128C94.8199 83.646 95.1316 84.3335 95.1791 85.0628H94.1358C94.092 84.5549 93.884 84.0748 93.543 83.6943C93.1962 83.3944 92.7449 83.2419 92.2863 83.2696C91.9861 83.2613 91.6882 83.3231 91.4164 83.4501C91.1446 83.5772 90.9065 83.7658 90.7213 84.001C90.3039 84.6193 90.1038 85.3577 90.1522 86.101V86.8561C90.1175 87.5651 90.3083 88.2669 90.6976 88.8618C90.8587 89.1064 91.0813 89.3049 91.3434 89.4373C91.6055 89.5698 91.8979 89.6317 92.1914 89.6168C92.6649 89.6505 93.1352 89.5168 93.5193 89.2393C93.8689 88.862 94.0854 88.3815 94.1358 87.8707H95.1791ZM100.301 86.455L102.364 82.5381H103.549L100.823 87.446V90.3483H99.8029V87.4224L97.0761 82.5145H98.3091L100.301 86.455Z" fill="white"/>
</svg>
