<svg width="203" height="182" viewBox="0 0 203 182" fill="none" xmlns="http://www.w3.org/2000/svg">
<path fill-rule="evenodd" clip-rule="evenodd" d="M85.9024 121.084C84.482 119.178 82.6855 117.588 80.626 116.417C78.2425 115.331 75.6507 114.789 73.0355 114.83C70.8219 114.784 68.6255 115.23 66.6021 116.137C64.592 117.136 62.9651 118.777 61.9737 120.804V116.137H52.0228V182H62.2977V148.952C63.5043 150.793 65.206 152.251 67.2038 153.153C69.2126 154.123 71.4097 154.634 73.6372 154.646C76.1194 154.697 78.578 154.153 80.8112 153.059C82.8142 151.983 84.5658 150.487 85.9486 148.672C87.3936 146.832 88.4633 144.722 89.0959 142.463C89.7869 140.116 90.1147 137.676 90.0679 135.228C90.1122 132.624 89.769 130.028 89.0497 127.526C88.375 125.213 87.3103 123.034 85.9024 121.084ZM0 153.76L19.578 101.713H31.1489L50.4491 153.573H38.6005L34.5276 141.95H15.4124L11.3858 153.573L0 153.76ZM25.2708 114.316L18.4209 133.501H31.8431L25.2708 114.316ZM78.0342 143.117C78.7792 141.959 79.2685 140.654 79.4689 139.289C80.0249 136.328 80.0249 133.288 79.4689 130.327C79.176 128.966 78.6429 127.67 77.8953 126.499C77.1522 125.366 76.1729 124.41 75.0257 123.698C73.7651 122.999 72.3449 122.645 70.9065 122.672C69.4079 122.634 67.9252 122.988 66.6021 123.698C65.5246 124.45 64.598 125.4 63.8714 126.499C63.2244 127.704 62.7418 128.992 62.4366 130.327C61.8806 133.288 61.8806 136.328 62.4366 139.289C62.7856 140.631 63.3151 141.919 64.0102 143.117C64.7549 144.211 65.7361 145.121 66.8798 145.777C68.1552 146.487 69.5889 146.856 71.0453 146.851C72.5341 146.881 74.0039 146.511 75.3034 145.777C76.3647 145.111 77.2532 144.199 77.8953 143.117H78.0342ZM125.938 120.384C124.194 118.64 122.093 117.302 119.782 116.463C114.626 114.473 108.924 114.473 103.768 116.463C101.463 117.314 99.3643 118.651 97.6121 120.384C95.8843 122.154 94.5716 124.291 93.7706 126.639C92.821 129.256 92.3354 132.021 92.3358 134.808C92.252 137.543 92.692 140.269 93.6317 142.837C94.4824 145.147 95.7893 147.259 97.4733 149.045C99.2255 150.778 101.324 152.115 103.629 152.966C106.192 153.914 108.907 154.373 111.636 154.32C114.365 154.377 117.081 153.918 119.643 152.966C121.958 152.146 124.06 150.809 125.791 149.055C127.522 147.301 128.838 145.175 129.64 142.837C130.597 140.206 131.083 137.424 131.075 134.621C131.157 131.828 130.668 129.048 129.64 126.453C128.847 124.155 127.531 122.077 125.799 120.384H125.938ZM118.949 142.837C119.655 141.643 120.141 140.33 120.384 138.962C120.666 137.533 120.806 136.079 120.8 134.621C120.817 133.055 120.677 131.491 120.384 129.953C120.14 128.6 119.654 127.303 118.949 126.126C118.249 124.958 117.26 123.992 116.079 123.325C114.645 122.601 113.054 122.248 111.451 122.298C109.952 122.261 108.47 122.615 107.147 123.325C106.083 124.077 105.172 125.028 104.462 126.126C103.717 127.283 103.228 128.588 103.027 129.953C102.739 131.492 102.6 133.055 102.611 134.621C102.612 136.078 102.751 137.532 103.027 138.962C103.252 140.335 103.739 141.651 104.462 142.837C105.068 144.001 106.002 144.96 107.147 145.591C108.465 146.317 109.948 146.687 111.451 146.664C113.062 146.737 114.662 146.365 116.079 145.591C117.247 144.926 118.233 143.98 118.949 142.837ZM134.084 153.386H144.405V101.526H134.084V153.386ZM161.252 153.386H150.977V101.526H161.252V153.386ZM201.565 126.453C200.772 124.104 199.459 121.967 197.728 120.204C195.996 118.441 193.89 117.098 191.568 116.277C186.412 114.287 180.709 114.287 175.554 116.277C173.243 117.115 171.142 118.454 169.398 120.198C167.67 121.967 166.357 124.104 165.556 126.453C164.585 129.128 164.099 131.959 164.122 134.808C164.082 137.552 164.569 140.279 165.556 142.837C166.418 145.141 167.724 147.251 169.398 149.045C171.142 150.789 173.243 152.127 175.554 152.966C180.742 154.769 186.38 154.769 191.568 152.966C193.873 152.115 195.971 150.778 197.724 149.045C199.441 147.285 200.752 145.166 201.565 142.837C202.522 140.206 203.008 137.424 203 134.621C202.914 131.904 202.43 129.214 201.565 126.639V126.453ZM190.688 142.837C191.374 141.633 191.859 140.324 192.123 138.962C192.422 137.535 192.577 136.08 192.586 134.621C192.588 133.054 192.433 131.49 192.123 129.953C191.923 128.588 191.433 127.283 190.688 126.126C190.004 124.961 189.031 123.996 187.865 123.325C186.431 122.601 184.84 122.248 183.237 122.298C181.738 122.261 180.256 122.615 178.932 123.325C177.785 124.037 176.806 124.993 176.063 126.126C175.357 127.303 174.871 128.6 174.628 129.953C174.34 131.492 174.201 133.055 174.211 134.621C174.212 136.078 174.352 137.532 174.628 138.962C174.895 140.324 175.379 141.632 176.063 142.837C176.779 143.98 177.765 144.926 178.932 145.591C180.251 146.317 181.734 146.687 183.237 146.664C184.848 146.737 186.448 146.365 187.865 145.591C189.048 144.964 190.028 144.008 190.688 142.837Z" fill="#2582A1"/>
<path fill-rule="evenodd" clip-rule="evenodd" d="M72.431 109.279L75.9101 111.947L79.4155 109.279V101.037H72.5101L72.431 109.279ZM79.6791 92.0741H71.3504V90.1002L52.4 111.707H62.4155L72.3519 100.076H79.6791V92.0741ZM79.4419 91.1672H72.431V84.2051L68.2667 78.4701H83L79.4419 84.2051V91.1672ZM51.1612 67H32V100.743H40.9876L61.8357 77.6432L51.1612 67ZM41.2512 78.7368H44.2558V76.0694H41.2512V73.0285H38.6155V76.0694H35.6109V78.7368H38.6419V81.7244H41.2775L41.2512 78.7368ZM59.0682 99.2496L60.5442 94.048H62.4946V79.5904L42.1473 102.104V112L52.3209 100.743H57.0388C57.5024 100.786 57.9654 100.655 58.3396 100.374C58.7138 100.094 58.9731 99.6841 59.0682 99.2229V99.2496ZM58.6729 88.5797L60.1225 87.086H57.1969L58.6729 88.5797Z" fill="#2582A1"/>
<path d="M67.0343 58.5263H66.7955C54.989 55.5526 54.2461 49.9737 54.5645 48C53.7774 51.1144 53.814 54.3774 54.6706 57.4737C57.7948 59.683 61.4601 61.0191 65.2832 61.3421L66.7955 61.4211C78.6816 63.6579 79.6633 73.2632 75.3917 77.8947C75.8958 77 80.8837 67.0263 68.5996 64.9211L66.8751 64.6316C58.1727 63.0789 57.4564 61.7368 57.0319 61.6579C57.1665 64.2792 58.2264 66.77 60.0259 68.6944C61.8254 70.6188 64.2499 71.8541 66.8751 72.1842C74.41 73.0789 75.1529 76.8158 75.2325 78C76.3881 77.1405 77.3288 76.029 77.9821 74.7513C78.6354 73.4737 78.9837 72.0641 79 70.6316V69.6842C78.8408 65.0789 75.4713 60.1053 67.0343 58.5263Z" fill="#FDB931"/>
<path d="M71.5543 172.664V178.686H69.5641V163.235H75.2108C76.6414 163.133 78.0545 163.602 79.1449 164.542C79.6209 164.966 79.9968 165.492 80.245 166.082C80.4933 166.672 80.6076 167.31 80.5796 167.95C80.6208 168.601 80.5175 169.253 80.2773 169.858C80.0371 170.464 79.666 171.008 79.1911 171.451C78.0495 172.319 76.6384 172.75 75.2108 172.664H71.5543ZM71.5543 170.844H75.1645C76.0612 170.922 76.9541 170.655 77.6638 170.097C77.9614 169.809 78.1939 169.46 78.3457 169.073C78.4974 168.687 78.5648 168.272 78.5432 167.856C78.5534 167.442 78.4808 167.031 78.3297 166.646C78.1786 166.261 77.9521 165.91 77.6638 165.616C77.008 165.049 76.1664 164.75 75.3033 164.776H71.5543V170.844ZM97.5195 178.546H95.483V171.544H87.7999V178.686H85.7634V163.235H87.7999V169.91H95.5293V163.235H97.5657L97.5195 178.546ZM112.33 174.531H105.989L104.508 178.546H102.426L108.304 163.095H110.062L115.94 178.546H113.858L112.33 174.531ZM106.545 172.851H111.729L109.137 165.616L106.545 172.851ZM126.169 172.291H122.466V178.546H120.43V163.235H125.521C126.949 163.15 128.36 163.58 129.501 164.449C129.978 164.88 130.351 165.416 130.591 166.014C130.832 166.613 130.934 167.259 130.89 167.903C130.914 168.808 130.637 169.695 130.103 170.424C129.562 171.15 128.822 171.702 127.974 172.011L131.723 178.592H129.548L126.169 172.291ZM122.466 170.844H125.567C126.439 170.885 127.295 170.603 127.974 170.05C128.271 169.792 128.505 169.468 128.658 169.104C128.81 168.739 128.877 168.344 128.853 167.95C128.88 167.545 128.82 167.139 128.676 166.76C128.532 166.382 128.308 166.039 128.02 165.756C127.329 165.192 126.455 164.909 125.567 164.962H122.466V170.844ZM138.943 163.282L143.942 175.885L148.987 163.282H151.579V178.732H149.589V172.664V166.176L144.544 178.686H143.016L138.295 166.176V172.618V178.639H136.351V163.235L138.943 163.282ZM166.436 174.718H160.141L158.706 178.732H156.577L162.455 163.282H164.122L170 178.732H167.917L166.436 174.718ZM160.604 173.038H165.973L163.335 165.802L160.604 173.038ZM185.782 173.831C185.678 175.29 185.033 176.656 183.977 177.659C182.84 178.579 181.407 179.045 179.951 178.966C179.125 178.999 178.302 178.839 177.548 178.499C176.793 178.159 176.127 177.648 175.6 177.005C174.427 175.51 173.835 173.635 173.934 171.731V170.237C173.916 168.933 174.185 167.642 174.721 166.456C175.197 165.427 175.951 164.554 176.896 163.935C177.878 163.359 179 163.068 180.136 163.095C181.571 163.016 182.982 163.501 184.07 164.449C185.081 165.474 185.689 166.834 185.782 168.276H183.746C183.66 167.272 183.254 166.322 182.589 165.569C181.912 164.976 181.031 164.674 180.136 164.729C179.55 164.712 178.968 164.835 178.438 165.086C177.907 165.337 177.443 165.711 177.081 166.176C176.266 167.399 175.876 168.86 175.97 170.33V171.824C175.902 173.227 176.275 174.615 177.035 175.792C177.349 176.276 177.784 176.668 178.295 176.93C178.807 177.192 179.378 177.315 179.951 177.285C180.875 177.352 181.793 177.088 182.542 176.539C183.225 175.792 183.647 174.842 183.746 173.831H185.782ZM195.78 171.03L199.806 163.282H202.12L196.798 172.991V178.732H194.808V172.944L189.485 163.235H191.892L195.78 171.03Z" fill="#2582A1"/>
</svg>
