<svg xmlns="http://www.w3.org/2000/svg" width="18" height="18" viewBox="0 0 18 18">
    <g fill="none" fill-rule="evenodd" opacity=".6">
        <path d="M0 0L18 0 18 18 0 18z"/>
        <path fill="#02475B" fill-rule="nonzero" d="M13.5.75c.414 0 .75.336.75.75v.75H15c.825 0 1.5.675 1.5 1.5v12c0 .825-.675 1.5-1.5 1.5H3c-.825 0-1.5-.675-1.5-1.5v-12c0-.825.675-1.5 1.5-1.5h.75V1.5c0-.414.336-.75.75-.75s.75.336.75.75v.75h7.5V1.5c0-.414.336-.75.75-.75zM15 6H3v9.75h12V6zM9.75 7.5v2.25H12v1.5H9.75v2.25h-1.5v-2.25H6v-1.5h2.25V7.5h1.5z"/>
    </g>
</svg>
