<svg width="29" height="24" viewBox="0 0 29 24" fill="none" xmlns="http://www.w3.org/2000/svg">
<rect width="14" height="14" fill="#B0B0B0"/>
<rect x="14" y="14" width="15" height="10" fill="#FDB931"/>
<g clip-path="url(#clip0)">
<path d="M14.9834 21.9935C11.6562 21.9935 8.32558 21.9935 4.99833 21.9935C4.47385 21.9935 4.20995 21.7381 4.20995 21.2304C4.20995 17.7352 4.20995 14.2366 4.21329 10.7413C4.21329 10.5991 4.16986 10.5312 4.03623 10.46C2.75344 9.77454 2.05525 8.73016 1.99846 7.30747C1.99178 7.15226 2.04189 6.97119 2.12206 6.83539C3.37145 4.68842 4.6342 2.54791 5.88693 0.400941C6.05062 0.126102 6.27779 0 6.60517 0C12.194 0.00323339 17.7829 0.00323339 23.3717 0C23.7024 0 23.9296 0.126102 24.0899 0.400941C25.3494 2.54468 26.6054 4.68842 27.8715 6.82569C28.0218 7.07789 28.0118 7.33333 27.9784 7.592C27.8047 8.90476 27.1165 9.87478 25.9006 10.4859C25.7803 10.5441 25.7703 10.6217 25.7703 10.7316C25.7736 14.1849 25.7636 17.6382 25.7803 21.0914C25.7836 21.6637 25.5632 22.0032 24.8416 22C21.5544 21.9806 18.2706 21.9935 14.9834 21.9935ZM14.9968 9.33157C14.2117 10.321 13.1962 10.8642 11.9134 10.8642C10.6273 10.8642 9.61172 10.3178 8.83001 9.32834C8.44584 9.83921 7.97816 10.2272 7.40691 10.4988C6.83567 10.7704 6.22434 10.8868 5.58962 10.8707C5.58962 14.1461 5.58962 17.4021 5.58962 20.6614C6.30785 20.6614 7.01272 20.6614 7.73763 20.6614C7.73763 20.5902 7.73763 20.5256 7.73763 20.4641C7.73763 18.3463 7.73429 16.2284 7.73763 14.1105C7.74097 12.8689 8.70641 11.9344 9.98587 11.9312C10.5872 11.928 11.1885 11.9312 11.7898 11.9312C11.9067 11.9312 12.0236 11.9312 12.1406 11.9506C13.2864 12.1446 14.0314 13.0079 14.0314 14.1332C14.0314 16.2413 14.0314 18.3463 14.0314 20.4544C14.0314 20.5223 14.0314 20.5902 14.0314 20.6581C17.4989 20.6581 20.9431 20.6581 24.3939 20.6581C24.3939 17.3924 24.3939 14.1332 24.3939 10.8739C23.0443 10.8836 21.9653 10.3695 21.1569 9.33157C19.5835 11.3912 16.5268 11.3621 14.9968 9.33157ZM3.9761 6.35685C11.3321 6.35685 18.6581 6.35685 26.0008 6.35685C25.9774 6.31158 25.9674 6.28248 25.9507 6.25661C25.0086 4.65285 24.0632 3.04909 23.1278 1.44209C23.0711 1.34186 23.0009 1.32892 22.9007 1.32892C17.6325 1.32892 12.3677 1.33216 7.09958 1.32569C6.96261 1.32569 6.8958 1.37096 6.82899 1.48089C5.98381 2.92945 5.1353 4.37478 4.28678 5.82011C4.18656 5.99471 4.08634 6.16608 3.9761 6.35685ZM12.655 20.6614C12.6584 20.6129 12.6617 20.5805 12.6617 20.5514C12.6617 18.4012 12.6617 16.2543 12.6617 14.1041C12.6617 13.5996 12.3043 13.2601 11.7764 13.2569C11.1918 13.2537 10.6072 13.2569 10.0226 13.2569C9.45471 13.2569 9.10729 13.5932 9.10729 14.1429C9.10729 16.2607 9.10729 18.3754 9.10729 20.4932C9.10729 20.5482 9.10729 20.6064 9.10729 20.6646C10.3032 20.6614 11.4724 20.6614 12.655 20.6614ZM21.9085 7.70194C22.0054 8.46825 22.8305 9.54174 24.2302 9.54174C25.6133 9.54497 26.4651 8.47472 26.5587 7.70194C25.012 7.70194 23.4686 7.70194 21.9085 7.70194ZM3.43492 7.69547C3.46833 8.67196 4.69768 9.59671 5.87691 9.53851C6.96261 9.48354 8.1218 8.51352 8.0717 7.69547C6.52499 7.69547 4.97829 7.69547 3.43492 7.69547ZM9.58499 7.69547C9.70192 8.49735 10.5538 9.57084 12.0003 9.53851C13.0893 9.51264 14.2117 8.58789 14.2351 7.69547C12.6884 7.69547 11.1451 7.69547 9.58499 7.69547ZM15.7451 7.69871C15.9054 8.76573 17.0312 9.60317 18.2038 9.53851C19.2828 9.4803 20.3785 8.56202 20.3952 7.69871C18.8452 7.69871 17.2951 7.69871 15.7451 7.69871Z" fill="white"/>
<path d="M18.6964 11.9312C19.271 11.9312 19.8422 11.9312 20.4168 11.9312C21.4624 11.9345 22.2441 12.6878 22.2441 13.6967C22.2441 14.547 22.2441 15.4007 22.2441 16.251C22.2408 17.2566 21.4557 18.0165 20.4135 18.0165C19.2676 18.0165 18.1218 18.0165 16.9726 18.0165C15.907 18.0165 15.1286 17.2631 15.1286 16.2349C15.1286 15.3877 15.1286 14.5438 15.1286 13.6967C15.1286 12.6975 15.9103 11.9377 16.9426 11.9345C17.5272 11.928 18.1118 11.9312 18.6964 11.9312ZM18.6864 13.2537C18.1185 13.2537 17.5505 13.2537 16.9826 13.2537C16.6619 13.2537 16.4983 13.4121 16.4983 13.7193C16.4983 14.5503 16.4983 15.378 16.4983 16.209C16.4983 16.5356 16.6619 16.6908 16.9993 16.6908C18.1218 16.6908 19.2476 16.6908 20.37 16.6908C20.7074 16.6908 20.8711 16.5356 20.8711 16.209C20.8711 15.3845 20.8711 14.56 20.8711 13.7355C20.8711 13.4057 20.7141 13.2569 20.37 13.2537C19.8121 13.2537 19.2476 13.2537 18.6864 13.2537Z" fill="white"/>
</g>
<defs>
<clipPath id="clip0">
<rect width="26" height="22" fill="white" transform="translate(2)"/>
</clipPath>
</defs>
</svg>
