<svg xmlns="http://www.w3.org/2000/svg" width="18" height="18" viewBox="0 0 18 18">
    <g fill="none" fill-rule="evenodd" opacity=".6">
        <path d="M0 0H18V18H0z"/>
        <path fill="#02475B" fill-rule="nonzero" d="M11.615 11.02c1.978.465 3.991 1.418 4.128 2.883l.007.16v1.687H2.25v-1.688c0-1.556 2.087-2.56 4.135-3.041.095 1.165.952 2.114 2.07 2.35l.17.03v1.594h2.625l.062-.006c.153.44.57.756 1.063.756.621 0 1.125-.504 1.125-1.125s-.504-1.125-1.125-1.125c-.447 0-.834.261-1.015.64l-.048.116-.062-.006H9.375V13.4c1.162-.166 2.078-1.092 2.228-2.259l.012-.12zm.76 3.225c.207 0 .375.168.375.375s-.168.375-.375.375S12 14.827 12 14.62s.168-.375.375-.375zM9 10.688c.533 0 1.186.06 1.874.18l-.003.057c-.063.979-.877 1.752-1.871 1.752-.986 0-1.795-.761-1.87-1.728l-.003-.08c.688-.122 1.34-.181 1.873-.181zM9 2.25c1.856 0 3.375 1.519 3.375 3.375S10.856 9 9 9 5.625 7.481 5.625 5.625 7.144 2.25 9 2.25z"/>
    </g>
</svg>
