<svg width="72" height="72" viewBox="0 0 72 72" fill="none" xmlns="http://www.w3.org/2000/svg">
<g filter="url(#filter0_d)">
<circle cx="36" cy="33" r="33" fill="#0087BA"/>
</g>
<g filter="url(#filter1_d)">
<path d="M17 25C17 23.3431 18.3431 22 20 22H51C52.6569 22 54 23.3431 54 25V40.2646C54 40.4213 54.0123 40.5777 54.0367 40.7325L55.5 50L49.8088 45.6221C49.2843 45.2187 48.6413 45 47.9796 45H20C18.3431 45 17 43.6569 17 42V25Z" fill="white"/>
</g>
<path d="M18 32L17.9999 25.0001C17.9999 23.8955 18.8954 23.0001 19.9999 23.0001L28.5 23.0001" stroke="#DFDFDF" stroke-width="2" stroke-linejoin="round"/>
<rect x="23" y="27" width="25" height="3" fill="#FCB716"/>
<rect x="23" y="32" width="25" height="3" fill="#FCB716"/>
<rect x="23" y="37" width="25" height="3" fill="#FCB716"/>
<defs>
<filter id="filter0_d" x="0" y="0" width="72" height="72" filterUnits="userSpaceOnUse" color-interpolation-filters="sRGB">
<feFlood flood-opacity="0" result="BackgroundImageFix"/>
<feColorMatrix in="SourceAlpha" type="matrix" values="0 0 0 0 0 0 0 0 0 0 0 0 0 0 0 0 0 0 127 0"/>
<feOffset dy="3"/>
<feGaussianBlur stdDeviation="1.5"/>
<feColorMatrix type="matrix" values="0 0 0 0 0 0 0 0 0 0 0 0 0 0 0 0 0 0 0.25 0"/>
<feBlend mode="normal" in2="BackgroundImageFix" result="effect1_dropShadow"/>
<feBlend mode="normal" in="SourceGraphic" in2="effect1_dropShadow" result="shape"/>
</filter>
<filter id="filter1_d" x="13" y="22" width="46.5" height="36" filterUnits="userSpaceOnUse" color-interpolation-filters="sRGB">
<feFlood flood-opacity="0" result="BackgroundImageFix"/>
<feColorMatrix in="SourceAlpha" type="matrix" values="0 0 0 0 0 0 0 0 0 0 0 0 0 0 0 0 0 0 127 0"/>
<feOffset dy="4"/>
<feGaussianBlur stdDeviation="2"/>
<feColorMatrix type="matrix" values="0 0 0 0 0 0 0 0 0 0 0 0 0 0 0 0 0 0 0.25 0"/>
<feBlend mode="normal" in2="BackgroundImageFix" result="effect1_dropShadow"/>
<feBlend mode="normal" in="SourceGraphic" in2="effect1_dropShadow" result="shape"/>
</filter>
</defs>
</svg>
