<svg width="16" height="21" viewBox="0 0 16 21" fill="none" xmlns="http://www.w3.org/2000/svg">
<path fill-rule="evenodd" clip-rule="evenodd" d="M7.11843 19.6966L1.39817 12.0994C0.191557 10.58 -1.34576 6.49536 2.1579 2.31242C3.23043 1.10581 8.26756 -2.18494 13.094 2.23933C16.9552 5.77873 15.3583 10.3281 14.0772 12.1157C12.9777 13.5991 12.1006 14.7526 11.2235 15.9061C10.3464 17.0597 9.46923 18.2132 8.36973 19.6966C8.17608 20.1584 7.65471 20.8049 7.11843 19.6966ZM7.82001 10.3285C9.22685 10.3285 10.3673 9.18801 10.3673 7.78118C10.3673 6.37434 9.22685 5.23387 7.82001 5.23387C6.41318 5.23387 5.27271 6.37434 5.27271 7.78118C5.27271 9.18801 6.41318 10.3285 7.82001 10.3285Z" fill="#00B38E"/>
</svg>
