<svg xmlns="http://www.w3.org/2000/svg" width="18" height="18" viewBox="0 0 18 18">
    <g fill="none" fill-rule="evenodd" opacity=".6">
        <path d="M0 0L18 0 18 18 0 18z"/>
        <path fill="#02475B" fill-rule="nonzero" d="M10.688.75L15.75 5.7v9.9c0 .908-.76 1.65-1.688 1.65H3.93c-.928 0-1.679-.742-1.679-1.65l.008-13.2c0-.907.751-1.65 1.68-1.65h6.75zM6.925 10.5H4.5V15h.99v-1.758h.989c.248 0 .426.054.536.163.109.11.18.282.214.517.025.18.044.37.057.567.012.198.046.368.1.511h.99c-.046-.063-.08-.14-.104-.23-.023-.09-.04-.186-.05-.287-.01-.1-.018-.2-.022-.296l-.013-.252c-.008-.114-.024-.227-.047-.34-.023-.114-.06-.218-.11-.312-.051-.095-.116-.177-.196-.246-.08-.07-.18-.121-.302-.155v-.012c.252-.101.433-.248.545-.441.111-.194.167-.423.167-.687 0-.173-.03-.333-.092-.483-.06-.149-.149-.28-.264-.393-.116-.114-.255-.203-.416-.268-.162-.065-.344-.098-.546-.098zm3.6 1.242H9.503l1.072 1.544L9.403 15h1.002l.681-1.027.68 1.027h1.022l-1.204-1.733 1.071-1.525h-.989l-.567.85-.574-.85zm-3.952-.473c.226 0 .397.05.51.148.113.099.17.257.17.476 0 .227-.057.39-.17.491-.113.101-.284.152-.51.152H5.489v-1.267zM10.5 2.25V6h3.75L10.5 2.25z"/>
    </g>
</svg>
