<?xml version="1.0" encoding="UTF-8"?>
<svg width="24px" height="24px" viewBox="0 0 24 24" version="1.1" xmlns="http://www.w3.org/2000/svg" xmlns:xlink="http://www.w3.org/1999/xlink">
    <!-- Generator: sketchtool 64 (101010) - https://sketch.com -->
    <title>A9049EAA-3052-4ADB-9A10-A459422AC08D</title>
    <desc>Created with sketchtool.</desc>
    <g id="Mobile" stroke="none" stroke-width="1" fill="none" fill-rule="evenodd">
        <g id="Post-Login_Mobile_01-Home" transform="translate(-312.000000, -1214.000000)">
            <g id="Navbar-Menu" transform="translate(0.000000, 1204.000000)">
                <g id="ic_account/solid" transform="translate(312.000000, 10.000000)">
                    <polygon id="Box" points="0 0 24 0 24 24 0 24"></polygon>
                    <path d="M12,14.25 C15.0375,14.25 21,15.7125 21,18.75 L21,18.75 L21,21 L3,21 L3,18.75 C3,15.7125 8.9625,14.25 12,14.25 Z M12,3 C14.475,3 16.5,5.025 16.5,7.5 C16.5,9.975 14.475,12 12,12 C9.525,12 7.5,9.975 7.5,7.5 C7.5,5.025 9.525,3 12,3 Z" id="Shape" fill="#02475B" fill-rule="nonzero"></path>
                </g>
            </g>
        </g>
    </g>
</svg>