<svg width="14" height="16" viewBox="0 0 14 16" fill="none" xmlns="http://www.w3.org/2000/svg">
<path fill-rule="evenodd" clip-rule="evenodd" d="M5.38644 11.1239V10.7998H4.39577C4.31613 10.7998 4.25173 10.7394 4.25173 10.6647V9.73527H3.90634V10.6647C3.90634 10.7394 3.8419 10.7998 3.7623 10.7998H2.77163V11.1239H3.7623C3.84194 11.1239 3.90634 11.1843 3.90634 11.259V12.1885H4.25173V11.259C4.25173 11.1843 4.31617 11.1239 4.39577 11.1239H5.38644ZM5.67449 10.6647V11.2591C5.67449 11.3337 5.61005 11.3942 5.53045 11.3942H4.53985V12.3236C4.53985 12.3983 4.47541 12.4588 4.39577 12.4588H3.7623C3.68266 12.4588 3.61832 12.3983 3.61832 12.3236V11.3942H2.62766C2.54802 11.3942 2.48361 11.3337 2.48361 11.2591V10.6647C2.48361 10.5899 2.54805 10.5296 2.62766 10.5296H3.61832V9.60012C3.61832 9.5254 3.68269 9.46497 3.7623 9.46497H4.39577C4.47541 9.46497 4.53985 9.5254 4.53985 9.60012V10.5296H5.53045C5.61005 10.5295 5.67449 10.5899 5.67449 10.6647ZM11.2284 7.7027V7.37861H8.61356V7.7027H11.2284ZM11.5165 7.24346V7.83781C11.5165 7.91254 11.452 7.97296 11.3724 7.97296H8.46959C8.38999 7.97296 8.32554 7.91254 8.32554 7.83781V7.24346C8.32554 7.16989 8.38999 7.10837 8.46959 7.10837H11.3724C11.452 7.10834 11.5165 7.16989 11.5165 7.24346ZM8.14399 12.0765C7.65221 11.871 7.20838 11.5831 6.83368 11.2305C6.22013 10.6548 5.80792 9.92967 5.63817 9.13749L5.63225 9.1089L5.63113 9.10017L5.62294 9.06277V9.05837L5.6159 9.02544L5.61355 9.00783L5.61001 8.98801L5.60417 8.95729L5.60297 8.94954L5.59713 8.91221V8.90669L5.59247 8.87485L5.58897 8.85513L5.58662 8.8364L5.58308 8.80453L5.58193 8.79796L5.57723 8.7606V8.75291C5.55846 8.58148 5.54911 8.40683 5.55727 8.23544V8.22555V8.22335L5.55846 8.21569V8.20469L5.55962 8.19483L5.56081 8.17393L5.56196 8.16624V8.16407L5.56315 8.15418V8.14317L5.56431 8.13325L5.5655 8.12339L5.56666 8.11242V8.10801L5.56785 8.10256L5.569 8.09155L5.57019 8.08169L5.57135 8.07069L5.57254 8.05971L5.57489 8.04985L5.57604 8.03888L5.57723 8.02787L5.57839 8.01798L5.58074 8.00701L5.58193 7.99603L5.58308 7.98943L5.58427 7.98506L5.58543 7.97517L5.58778 7.96416L5.58897 7.95318L5.59131 7.94221L5.59247 7.93123L5.59359 7.92903L5.59482 7.92029L5.59713 7.90928L5.59947 7.89831L5.60063 7.88733L5.60297 7.87633L5.60532 7.86752V7.86532L5.60767 7.85434L5.61001 7.84232C5.66391 7.58851 5.73886 7.35449 5.83251 7.104L5.8372 7.09303L5.84659 7.06884L5.85013 7.06116L5.85128 7.0578L5.85478 7.04578L5.85948 7.03372L5.86413 7.02271L5.86883 7.01069L5.87352 6.99856L5.87821 6.9887V6.98759L5.88291 6.97553L5.8876 6.96347L5.89229 6.95134L5.89699 6.93932L5.90283 6.92834C5.2986 5.92305 4.44029 4.56297 4.07847 3.42253C3.7623 4.3948 2.98362 5.69346 2.18736 7.02169C1.11005 8.81696 0 10.6682 0 11.7547C0 12.8117 0.456686 13.7685 1.19558 14.4607C1.93328 15.1529 2.95315 15.5814 4.07963 15.5814C6.19674 15.5812 7.96839 14.0573 8.14399 12.0765ZM12.8911 8.77828C12.8934 8.70464 12.9591 8.6453 13.0375 8.64753C13.1172 8.64868 13.1793 8.71128 13.1781 8.78492C13.1781 8.79149 13.1418 11.0492 11.047 11.1404C10.9673 11.1437 10.9005 11.0866 10.8971 11.0119C10.8948 10.9382 10.9556 10.8745 11.034 10.8724C12.8584 10.7921 12.8911 8.78376 12.8911 8.77828ZM7.04913 12.1995C7.05148 12.1259 7.11711 12.0665 7.19556 12.0687C7.27517 12.0699 7.33726 12.1314 7.33607 12.2061C7.33607 12.2127 7.29979 14.4705 5.20495 14.5616C5.12531 14.5649 5.05856 14.5067 5.05506 14.4331C5.05271 14.3595 5.11362 14.2958 5.19203 14.2925C7.01643 14.2133 7.04913 12.205 7.04913 12.1995ZM5.93439 7.71255C5.92038 7.76641 5.90868 7.818 5.89695 7.86857L5.8946 7.87958L5.88641 7.92023L5.88522 7.93008L5.88287 7.93997L5.88052 7.9499V7.95095L5.87941 7.95975L5.87706 7.96961L5.87583 7.97954L5.87348 7.98939L5.87236 7.99925L5.87114 8.00806V8.00917L5.86879 8.01906L5.86767 8.02892L5.86644 8.03888L5.8641 8.04765L5.86063 8.07732L5.85944 8.08718L5.85829 8.09599L5.85709 8.10585L5.85594 8.11577L5.85475 8.12126V8.12458L5.85359 8.13443L5.85244 8.14324L5.85125 8.15313V8.16194L5.85009 8.17179L5.8489 8.1762V8.1806V8.19053L5.84774 8.19933C5.83601 8.37506 5.8454 8.54981 5.86294 8.72445L5.86406 8.73214L5.86875 8.76839V8.77279L5.88168 8.86834L5.8828 8.87495L5.88984 8.91671L5.89453 8.94527L5.89688 8.964L5.90038 8.98046L5.90626 9.01115L5.9133 9.05075L5.91565 9.05844C6.06901 9.80769 6.45779 10.4966 7.03744 11.0393C7.77514 11.7315 8.79501 12.1599 9.92149 12.1599C11.0468 12.1599 12.0668 11.7315 12.8056 11.0393C13.5433 10.3471 14 9.39018 14 8.33333C14 7.2544 12.9133 5.45046 11.8478 3.67938C11.0398 2.33461 10.2412 1.00963 9.92037 0C9.60419 0.972304 8.82548 2.27202 8.02922 3.60029C7.33607 4.75496 6.29623 6.33155 5.93439 7.71255Z" fill="#02475B"/>
</svg>
