<svg width="386" height="386" viewBox="0 0 386 386" fill="none" xmlns="http://www.w3.org/2000/svg">
<ellipse cx="193" cy="196" rx="193" ry="189" fill="white"/>
<path d="M386 295.213H0V295.367H386V295.213Z" fill="#EBEBEB"/>
<path d="M347.323 307.642H321.769V307.796H347.323V307.642Z" fill="#EBEBEB"/>
<path d="M255.687 309.726H248.97V309.881H255.687V309.726Z" fill="#EBEBEB"/>
<path d="M320.997 300.462H306.175V300.617H320.997V300.462Z" fill="#EBEBEB"/>
<path d="M73.8802 301.775H40.5298V301.929H73.8802V301.775Z" fill="#EBEBEB"/>
<path d="M85.6149 301.775H80.7513V301.929H85.6149V301.775Z" fill="#EBEBEB"/>
<path d="M173.855 305.017H101.518V305.172H173.855V305.017Z" fill="#EBEBEB"/>
<path d="M349.948 260.782H200.875C198.404 260.782 196.474 258.774 196.474 256.381V46.8604C196.474 44.4672 198.481 42.46 200.875 42.46H349.948C352.341 42.46 354.348 44.39 354.348 46.8604V256.381C354.348 258.774 352.418 260.782 349.948 260.782ZM200.875 42.6144C198.559 42.6144 196.629 44.4672 196.629 46.8604V256.381C196.629 258.697 198.481 260.627 200.875 260.627H349.948C352.264 260.627 354.194 258.774 354.194 256.381V46.8604C354.194 44.5444 352.341 42.6144 349.948 42.6144H200.875Z" fill="#EBEBEB"/>
<path d="M330.029 64.6936H223.648V134.328H330.029V64.6936Z" fill="#E6E6E6"/>
<path d="M328.486 64.6936H220.406V134.328H328.486V64.6936Z" fill="#F0F0F0"/>
<path d="M330.029 134.405H223.648V148.07H330.029V134.405Z" fill="#E6E6E6"/>
<path d="M323.082 134.405H215.002V148.07H323.082V134.405Z" fill="#F0F0F0"/>
<path d="M323.932 69.2484H224.961V129.85H323.932V69.2484Z" fill="#FAFAFA"/>
<path d="M301.621 129.85L288.96 69.2484H269.274L281.858 129.85H301.621Z" fill="white"/>
<path d="M321.847 125.296C322.002 125.296 322.156 125.141 322.156 124.987V72.2592C322.156 72.1048 322.002 71.9504 321.847 71.9504C321.693 71.9504 321.538 72.1048 321.538 72.2592V124.987C321.538 125.141 321.693 125.296 321.847 125.296Z" fill="#F0F0F0"/>
<path d="M277.611 129.85L265.028 69.2484H257.308L269.969 129.85H277.611Z" fill="white"/>
<path d="M225.579 69.2484H224.961V129.85H225.579V69.2484Z" fill="#E6E6E6"/>
<path opacity="0.6" d="M219.325 76.1192H325.706L326.092 71.024H219.711L219.325 76.1192Z" fill="#EBEBEB"/>
<path opacity="0.6" d="M219.325 84.4568H325.706L326.092 79.3616H219.711L219.325 84.4568Z" fill="#EBEBEB"/>
<path opacity="0.6" d="M219.325 92.7944H325.706L326.092 87.6992H219.711L219.325 92.7944Z" fill="#EBEBEB"/>
<path opacity="0.6" d="M219.325 101.132H325.706L326.092 96.0368H219.711L219.325 101.132Z" fill="#EBEBEB"/>
<path opacity="0.6" d="M219.325 109.47H325.706L326.092 104.374H219.711L219.325 109.47Z" fill="#EBEBEB"/>
<path opacity="0.6" d="M219.325 117.807H325.706L326.092 112.712H219.711L219.325 117.807Z" fill="#EBEBEB"/>
<path d="M314.745 244.57H292.434V248.97H314.745V244.57Z" fill="#E6E6E6"/>
<path d="M254.452 194.004H250.36V295.213H254.452V194.004Z" fill="#E6E6E6"/>
<path d="M292.434 244.57H236.078V248.97H292.434V244.57Z" fill="#F5F5F5"/>
<path d="M314.745 268.656H292.434V273.056H314.745V268.656Z" fill="#E6E6E6"/>
<path d="M292.434 268.579H236.078V272.979H292.434V268.579Z" fill="#F5F5F5"/>
<path d="M314.745 196.397H292.434V200.797H314.745V196.397Z" fill="#E6E6E6"/>
<path d="M292.434 196.397H236.078V200.797H292.434V196.397Z" fill="#F5F5F5"/>
<path d="M314.745 220.483H292.434V224.884H314.745V220.483Z" fill="#E6E6E6"/>
<path d="M292.434 220.483H236.078V224.884H292.434V220.483Z" fill="#F5F5F5"/>
<path d="M310.808 194.004H306.716V295.213H310.808V194.004Z" fill="#E6E6E6"/>
<path d="M292.433 194.004H288.342V295.213H292.433V194.004Z" fill="#F5F5F5"/>
<path d="M240.169 194.004H236.078V295.213H240.169V194.004Z" fill="#F5F5F5"/>
<path d="M92.6398 213.458H50.4886V295.213H92.6398V213.458Z" fill="#E6E6E6"/>
<path d="M61.6826 295.213H50.4886V283.942H73.4942L61.6826 295.213Z" fill="#FAFAFA"/>
<path d="M207.513 213.458H165.362V295.213H207.513V213.458Z" fill="#E6E6E6"/>
<path d="M175.167 213.458H50.4886V291.353H175.167V213.458Z" fill="#FAFAFA"/>
<path d="M163.896 295.213H175.167V283.942H152.161L163.896 295.213Z" fill="#FAFAFA"/>
<path d="M166.443 242.485H59.2119V261.94H166.443V242.485Z" fill="#F0F0F0"/>
<path d="M166.443 266.108H59.2119V285.563H166.443V266.108Z" fill="#F0F0F0"/>
<path d="M146.062 244.57H79.5932C77.6632 244.57 76.042 242.948 76.042 241.018V240.787H149.614V241.018C149.614 242.948 147.992 244.57 146.062 244.57Z" fill="#FAFAFA"/>
<path d="M166.443 218.862H59.2119V238.316H166.443V218.862Z" fill="#F0F0F0"/>
<path d="M146.062 220.869H79.5932C77.6632 220.869 76.042 219.248 76.042 217.318V217.086H149.614V217.318C149.614 219.325 147.992 220.869 146.062 220.869Z" fill="#FAFAFA"/>
<path d="M146.062 268.193H79.5932C77.6632 268.193 76.042 266.572 76.042 264.642V264.41H149.614V264.642C149.614 266.649 147.992 268.193 146.062 268.193Z" fill="#FAFAFA"/>
<path d="M163.587 64.6936H57.2054V134.328H163.587V64.6936Z" fill="#E6E6E6"/>
<path d="M162.043 64.6936H53.9627V134.328H162.043V64.6936Z" fill="#F0F0F0"/>
<path d="M163.587 134.405H57.2054V148.07H163.587V134.405Z" fill="#E6E6E6"/>
<path d="M156.639 134.405H48.5591V148.07H156.639V134.405Z" fill="#F0F0F0"/>
<path d="M157.489 69.2484H58.5182V129.85H157.489V69.2484Z" fill="#FAFAFA"/>
<path d="M135.177 129.85L122.516 69.2484H102.753L115.414 129.85H135.177Z" fill="white"/>
<path d="M155.403 125.296C155.558 125.296 155.712 125.141 155.712 124.987V72.2592C155.712 72.1048 155.558 71.9504 155.403 71.9504C155.249 71.9504 155.094 72.1048 155.094 72.2592V124.987C155.017 125.141 155.172 125.296 155.403 125.296Z" fill="#F0F0F0"/>
<path d="M111.168 129.85L98.5842 69.2484H90.8642L103.525 129.85H111.168Z" fill="white"/>
<path d="M59.1358 69.2484H58.5182V129.85H59.1358V69.2484Z" fill="#E6E6E6"/>
<path opacity="0.6" d="M52.8824 76.1192H159.187L159.65 71.024H53.2684L52.8824 76.1192Z" fill="#EBEBEB"/>
<path opacity="0.6" d="M52.8824 78.9756H159.187L159.65 73.8804H53.2684L52.8824 78.9756Z" fill="#EBEBEB"/>
<path opacity="0.6" d="M52.8824 81.832H159.187L159.65 76.7368H53.2684L52.8824 81.832Z" fill="#EBEBEB"/>
<path opacity="0.6" d="M52.8824 84.6884H159.187L159.65 79.6704H53.2684L52.8824 84.6884Z" fill="#EBEBEB"/>
<path opacity="0.6" d="M52.8824 87.5448H159.187L159.65 82.5268H53.2684L52.8824 87.5448Z" fill="#EBEBEB"/>
<path opacity="0.6" d="M52.8824 90.4784H159.187L159.65 85.3832H53.2684L52.8824 90.4784Z" fill="#EBEBEB"/>
<path d="M77.8169 169.994H74.1113V210.988H77.8169V169.994Z" fill="#F5F5F5"/>
<path d="M75.5781 169.917H74.5746V210.91H75.5781V169.917Z" fill="#FAFAFA"/>
<path d="M76.428 169.917H76.042V210.91H76.428V169.917Z" fill="#FAFAFA"/>
<path d="M89.5527 213.458H62.3783C62.3783 211.528 63.9223 210.061 65.7751 210.061H86.0787C88.0087 210.061 89.5527 211.605 89.5527 213.458Z" fill="#F0F0F0"/>
<path d="M69.3256 195.393C69.9432 195.393 70.4064 194.93 70.4064 194.312V167.524C70.4064 166.906 69.9432 166.443 69.3256 166.443C68.708 166.443 68.2448 166.906 68.2448 167.524V194.39C68.322 195.007 68.7852 195.393 69.3256 195.393Z" fill="#F0F0F0"/>
<path d="M59.5212 179.722H92.4084L88.6256 156.716H63.304L59.5212 179.722Z" fill="#E0E0E0"/>
<path d="M193 329.407C269.768 329.407 332.001 325.78 332.001 321.306C332.001 316.833 269.768 313.206 193 313.206C116.233 313.206 54 316.833 54 321.306C54 325.78 116.233 329.407 193 329.407Z" fill="#F5F5F5"/>
<path d="M80.3913 156.24L79.6213 156.296L80.6474 170.54L81.4174 170.485L80.3913 156.24Z" fill="#FCB716"/>
<path d="M81.9427 177.767L81.1727 177.822L81.561 183.212L82.331 183.157L81.9427 177.767Z" fill="#FCB716"/>
<path d="M260.704 243.334H95.4186C91.6358 243.257 88.4706 240.324 88.1618 236.541L80.0558 123.752C79.747 120.278 82.2946 117.267 85.7686 116.958C86.0002 116.958 86.1546 116.958 86.3862 116.958H251.749C255.531 117.035 258.697 119.969 259.005 123.752L267.111 236.541C267.42 240.015 264.873 243.026 261.399 243.334C261.09 243.334 260.935 243.334 260.704 243.334Z" fill="#FCB716"/>
<path d="M261.321 243.334H96.036C92.2532 243.257 89.088 240.324 88.7792 236.541L80.6732 123.752C80.3644 120.278 82.912 117.267 86.386 116.958C86.6176 116.958 86.772 116.958 87.0036 116.958H252.366C256.149 117.035 259.314 119.969 259.623 123.752L267.729 236.541C268.038 240.015 265.49 243.026 262.016 243.334C261.784 243.334 261.553 243.334 261.321 243.334Z" fill="#FCB716"/>
<path opacity="0.5" d="M261.321 243.334H96.036C92.2532 243.257 89.088 240.324 88.7792 236.541L80.6732 123.752C80.3644 120.278 82.912 117.267 86.386 116.958C86.6176 116.958 86.772 116.958 87.0036 116.958H252.366C256.149 117.035 259.314 119.969 259.623 123.752L267.729 236.541C268.038 240.015 265.49 243.026 262.016 243.334C261.784 243.334 261.553 243.334 261.321 243.334Z" fill="white"/>
<path d="M252.52 120.278H87.1579H86.6175C82.3715 120.586 83.2979 127.071 87.5439 127.071H253.138C257.384 127.071 257.384 120.664 253.061 120.278H252.52Z" fill="#FCB716"/>
<path d="M91.4816 123.674C91.5588 124.446 90.9412 125.141 90.1692 125.218C90.092 125.218 90.092 125.218 90.0148 125.218C89.1656 125.218 88.3936 124.524 88.3164 123.674C88.2392 122.902 88.8568 122.208 89.6288 122.13C89.706 122.13 89.706 122.13 89.7832 122.13C90.6324 122.13 91.4044 122.825 91.4816 123.674Z" fill="#FAFAFA"/>
<path d="M96.7307 123.674C96.8079 124.446 96.1903 125.141 95.4183 125.218C95.3411 125.218 95.3411 125.218 95.2639 125.218C94.4147 125.218 93.6427 124.524 93.5655 123.674C93.4883 122.902 94.1059 122.208 94.8779 122.13C94.9551 122.13 94.9551 122.13 95.0323 122.13C95.9587 122.13 96.6535 122.825 96.7307 123.674Z" fill="#FAFAFA"/>
<path d="M102.057 123.674C102.135 124.446 101.517 125.141 100.745 125.218C100.668 125.218 100.668 125.218 100.591 125.218C99.7414 125.218 98.9694 124.524 98.8922 123.674C98.815 122.902 99.4326 122.208 100.205 122.13C100.282 122.13 100.282 122.13 100.359 122.13C101.285 122.13 101.98 122.825 102.057 123.674Z" fill="#FAFAFA"/>
<path d="M256.998 232.063H98.815C97.4254 232.063 96.2674 230.982 96.1902 229.593L89.4738 136.798C89.3966 135.563 90.2458 134.482 91.481 134.328C91.5582 134.328 91.6354 134.328 91.7898 134.328H249.973C251.362 134.328 252.52 135.409 252.597 136.798L259.314 229.593C259.391 230.828 258.542 231.909 257.229 232.063C257.152 232.063 257.075 232.063 256.998 232.063Z" fill="white"/>
<path d="M190.297 196.706L187.749 160.962L179.952 156.253H158.491L161.424 196.706H190.297Z" fill="white"/>
<path d="M190.297 197.092H161.347C161.116 197.092 160.961 196.937 160.961 196.783L158.028 156.33C158.028 156.253 158.028 156.098 158.105 156.021C158.182 155.944 158.259 155.867 158.414 155.867H179.875C179.952 155.867 180.03 155.867 180.03 155.944L187.827 160.653C187.904 160.73 187.981 160.808 187.981 160.962L190.529 196.706C190.529 196.783 190.529 196.937 190.452 197.014C190.529 197.014 190.452 197.092 190.297 197.092ZM161.733 196.32H189.911L187.364 161.116L179.875 156.639H158.877L161.733 196.32Z" fill="#FCB716"/>
<path d="M187.75 160.962L179.953 156.253L182.809 162.506L187.75 160.962Z" fill="#EBEBEB"/>
<path d="M182.809 162.815C182.655 162.815 182.5 162.738 182.5 162.583L179.644 156.33C179.567 156.176 179.644 156.021 179.721 155.867C179.875 155.79 180.03 155.712 180.184 155.79L187.981 160.499C188.136 160.576 188.213 160.73 188.136 160.885C188.136 161.039 187.981 161.116 187.904 161.194L182.963 162.738L182.809 162.815ZM180.802 157.179L183.041 161.966L186.901 160.808L180.802 157.179Z" fill="#FCB716"/>
<path d="M170.61 174.472C170.688 175.321 169.993 176.016 169.144 176.093H169.066C168.14 176.093 167.368 175.398 167.291 174.472C167.214 173.623 167.831 172.928 168.68 172.851C168.758 172.851 168.835 172.851 168.835 172.851C169.761 172.851 170.533 173.546 170.61 174.472Z" fill="#FCB716"/>
<path d="M181.188 174.472C181.265 175.321 180.647 176.016 179.798 176.093C179.721 176.093 179.644 176.093 179.644 176.093C178.717 176.093 177.945 175.398 177.868 174.472C177.791 173.623 178.486 172.851 179.335 172.851H179.412C180.338 172.851 181.11 173.546 181.188 174.472Z" fill="#FCB716"/>
<path d="M184.199 185.048C183.967 185.048 183.813 184.894 183.813 184.74C183.658 182.115 179.489 179.953 174.626 179.953C171.383 179.953 168.527 180.88 167.06 182.424C166.443 182.964 166.134 183.813 166.211 184.662C166.211 184.894 166.057 185.048 165.825 185.048C165.593 185.048 165.439 184.894 165.439 184.662C165.362 183.659 165.748 182.655 166.52 181.883C168.064 180.185 171.229 179.104 174.626 179.104C179.953 179.104 184.353 181.497 184.585 184.585C184.507 184.894 184.353 185.048 184.199 185.048Z" fill="#FCB716"/>
<path d="M164.59 171.152C164.513 171.152 164.436 171.152 164.358 171.075C164.204 170.921 164.204 170.689 164.358 170.535L165.98 168.759C166.134 168.605 166.366 168.605 166.52 168.759C166.674 168.914 166.674 169.145 166.52 169.3L164.899 171.075C164.744 171.152 164.667 171.152 164.59 171.152Z" fill="#FCB716"/>
<path d="M183.427 171.152C183.35 171.152 183.272 171.075 183.195 171.075L181.342 169.3C181.188 169.145 181.188 168.914 181.342 168.759C181.497 168.605 181.728 168.605 181.883 168.759L183.736 170.535C183.89 170.689 183.89 170.921 183.736 171.075C183.581 171.152 183.504 171.152 183.427 171.152Z" fill="#FCB716"/>
<path d="M156.175 204.657H157.951L160.498 207.977L160.267 204.657H162.042L162.505 210.679H160.575L158.105 207.359L158.337 210.679H156.561L156.175 204.657Z" fill="#FCB716"/>
<path d="M163.124 207.745C162.969 206.896 163.278 206.047 163.818 205.429C164.436 204.812 165.208 204.58 166.057 204.58C166.906 204.503 167.756 204.812 168.45 205.352C169.068 205.97 169.377 206.742 169.454 207.591C169.531 208.208 169.454 208.749 169.222 209.289C168.991 209.752 168.682 210.138 168.296 210.37C167.756 210.679 167.215 210.756 166.675 210.756C166.057 210.756 165.517 210.679 164.976 210.447C164.513 210.216 164.127 209.83 163.818 209.444C163.355 208.98 163.201 208.363 163.124 207.745ZM165.054 207.745C165.054 208.208 165.208 208.672 165.517 209.058C165.748 209.289 166.134 209.444 166.443 209.444C166.752 209.444 167.138 209.289 167.37 209.058C167.601 208.672 167.678 208.131 167.601 207.668C167.601 207.205 167.447 206.742 167.138 206.433C166.906 206.201 166.52 206.047 166.212 206.047C165.903 206.047 165.517 206.201 165.362 206.433C165.054 206.819 164.976 207.282 165.054 207.745Z" fill="#FCB716"/>
<path d="M173.005 204.657H175.784C176.248 204.657 176.711 204.734 177.097 204.889C177.406 205.043 177.714 205.275 177.946 205.506C178.178 205.815 178.409 206.124 178.486 206.433C178.641 206.819 178.718 207.205 178.718 207.591C178.795 208.131 178.718 208.594 178.641 209.135C178.564 209.444 178.332 209.752 178.1 210.061C177.869 210.293 177.637 210.447 177.328 210.524C176.942 210.602 176.634 210.679 176.248 210.679H173.468L173.005 204.657ZM175.012 206.047L175.244 209.366H175.707C176.016 209.366 176.248 209.366 176.556 209.212C176.711 209.135 176.865 208.98 176.942 208.749C177.02 208.44 177.02 208.054 177.02 207.668C177.02 207.205 176.865 206.742 176.634 206.356C176.325 206.124 175.939 205.97 175.553 205.97H175.012V206.047Z" fill="#FCB716"/>
<path d="M183.272 209.752H181.11L180.879 210.756H178.949L180.801 204.734H182.886L185.588 210.756H183.735L183.272 209.752ZM182.809 208.44L181.959 206.278L181.419 208.44H182.809Z" fill="#FCB716"/>
<path d="M184.815 204.657H190.528L190.605 206.124H188.675L188.984 210.679H187.131L186.822 206.124H184.892L184.815 204.657Z" fill="#FCB716"/>
<path d="M194.852 209.752H192.691L192.459 210.756H190.529L192.382 204.734H194.389L197.091 210.756H195.161L194.852 209.752ZM194.312 208.44L193.463 206.278L192.999 208.44H194.312Z" fill="#FCB716"/>
<path d="M273.056 133.633C273.751 133.324 274.6 132.861 275.295 132.398C275.99 131.935 276.839 131.549 277.611 131.086C279.155 130.159 280.622 129.233 282.088 128.229C285.022 126.222 287.724 123.983 290.194 121.513C290.503 121.204 290.812 120.895 291.121 120.586L291.584 120.123L291.816 119.892L291.893 119.737C291.816 119.969 291.893 119.892 291.893 119.66C291.97 119.351 291.97 119.12 291.97 118.811C291.97 117.19 291.738 115.568 291.43 113.947C290.735 110.473 289.731 106.922 288.65 103.448L291.661 102.136C293.514 105.455 295.135 109.006 296.37 112.635C297.065 114.565 297.528 116.649 297.683 118.734C297.76 119.351 297.683 120.046 297.606 120.664C297.528 121.59 297.142 122.439 296.679 123.211L296.525 123.366L296.448 123.52L296.37 123.674L296.139 123.983L295.676 124.601C295.367 124.987 295.058 125.373 294.749 125.759C292.124 128.692 289.191 131.317 285.948 133.633C284.404 134.791 282.783 135.872 281.085 136.876C280.236 137.339 279.386 137.879 278.537 138.342C277.688 138.806 276.839 139.269 275.835 139.732L273.056 133.633Z" fill="#FFB573"/>
<path d="M266.185 315.13C266.725 315.13 267.343 315.053 267.883 314.899C267.961 314.899 267.961 314.822 267.961 314.744C267.961 314.667 267.961 314.59 267.883 314.59C267.652 314.436 265.722 313.2 264.95 313.509C264.795 313.586 264.641 313.741 264.641 313.972C264.564 314.281 264.641 314.59 264.873 314.744C265.336 315.053 265.722 315.13 266.185 315.13ZM267.42 314.667C266.262 314.899 265.49 314.822 265.104 314.59C264.95 314.436 264.873 314.204 264.95 314.05C264.95 313.972 265.027 313.895 265.104 313.895C265.49 313.664 266.648 314.204 267.42 314.667Z" fill="#FCB716"/>
<path d="M267.883 314.899H267.961C268.038 314.899 268.038 314.822 268.038 314.744C268.038 314.667 268.038 312.814 267.343 312.197C267.189 312.042 266.957 311.965 266.725 311.965C266.494 311.965 266.262 312.12 266.185 312.351C266.031 313.123 267.189 314.513 267.806 314.822C267.806 314.899 267.883 314.899 267.883 314.899ZM266.803 312.274C266.957 312.274 267.034 312.351 267.111 312.428C267.497 313.046 267.729 313.741 267.729 314.436C267.111 313.972 266.339 312.892 266.494 312.428C266.494 312.351 266.494 312.274 266.803 312.274Z" fill="#FCB716"/>
<path d="M267.266 114.333C266.494 118.193 264.95 125.913 267.652 128.538C267.652 128.538 266.571 132.398 259.468 132.398C251.594 132.398 255.686 128.538 255.686 128.538C259.932 127.534 259.854 124.369 259.082 121.358L267.266 114.333Z" fill="#FFB573"/>
<path d="M254.22 130.005C252.984 130.159 254.065 126.994 254.528 126.685C255.686 125.913 270.663 124.832 270.509 126.685C270.432 127.457 270.046 129.001 269.428 129.542C268.81 130.082 264.95 128.384 254.22 130.005Z" fill="#263238"/>
<path d="M256.613 128.924C255.609 129.233 255.764 126.068 256.072 125.682C256.844 124.755 268.965 121.667 269.273 123.443C269.428 124.215 269.505 125.759 269.042 126.299C268.579 126.84 265.105 125.913 256.613 128.924Z" fill="#263238"/>
<path d="M252.135 107.385C252.057 107.385 251.903 107.308 251.903 107.308C251.44 106.69 250.668 106.304 249.896 106.382C249.741 106.382 249.587 106.304 249.587 106.15C249.587 105.996 249.664 105.841 249.896 105.841C250.899 105.764 251.826 106.227 252.443 106.999C252.521 107.154 252.521 107.308 252.443 107.462C252.289 107.385 252.212 107.385 252.135 107.385Z" fill="#263238"/>
<path d="M250.668 111.168C250.282 112.403 249.819 113.561 249.124 114.642C249.664 114.951 250.359 115.028 250.977 114.796L250.668 111.168Z" fill="#FF5652"/>
<path d="M251.054 110.242C251.131 110.782 250.899 111.168 250.513 111.245C250.127 111.322 249.818 110.859 249.818 110.396C249.818 109.933 249.973 109.47 250.359 109.392C250.745 109.315 250.976 109.701 251.054 110.242Z" fill="#263238"/>
<path d="M250.436 109.392L249.124 109.161C249.201 109.161 249.896 110.01 250.436 109.392Z" fill="#263238"/>
<path d="M275.372 314.744H268.887L269.427 299.768H275.912L275.372 314.744Z" fill="#FFB573"/>
<path d="M268.424 313.972H275.68C275.912 313.972 276.144 314.127 276.221 314.436L277.07 320.148C277.147 320.689 276.761 321.229 276.144 321.306C276.066 321.306 276.066 321.306 275.989 321.306C273.442 321.306 272.206 321.152 269.041 321.152C267.111 321.152 264.178 321.384 261.476 321.384C258.774 321.384 258.619 318.682 259.777 318.45C264.872 317.369 265.644 315.825 267.343 314.436C267.652 314.127 267.96 313.972 268.424 313.972Z" fill="#263238"/>
<g opacity="0.2">
<path opacity="0.2" d="M275.912 299.768H269.428L269.119 307.488H275.604L275.912 299.768Z" fill="black"/>
</g>
<path d="M249.664 137.416C245.727 135.872 241.79 134.174 238.084 132.166C234.147 130.236 230.441 127.998 226.967 125.373C226.041 124.678 225.192 123.829 224.343 122.98C224.111 122.748 223.879 122.516 223.725 122.285C223.493 121.976 223.262 121.744 223.03 121.436C222.49 120.586 222.104 119.66 222.027 118.656C221.949 117.73 222.104 116.726 222.413 115.877C222.644 115.182 223.03 114.488 223.493 113.87C224.265 112.866 225.115 111.94 226.118 111.168C227.894 109.778 229.747 108.543 231.754 107.54C232.68 106.999 233.684 106.613 234.687 106.15C235.691 105.687 236.617 105.301 237.698 104.992L239.088 108.003C235.691 110.164 232.217 112.48 229.669 115.105C229.129 115.723 228.589 116.34 228.125 117.035C227.739 117.653 227.739 118.116 227.817 118.039C227.894 117.962 227.817 118.039 227.894 118.116L228.203 118.425C228.28 118.579 228.511 118.734 228.589 118.888C229.206 119.506 229.901 120.046 230.673 120.586C232.294 121.744 233.915 122.748 235.614 123.674C237.312 124.678 239.165 125.527 240.941 126.454C244.569 128.229 248.352 129.85 252.057 131.394L249.664 137.416Z" fill="#FFB573"/>
<path d="M240.864 105.841L241.944 103.525L237.081 101.904C237.081 101.904 235.537 106.459 237.39 108.543C238.856 108.312 240.246 107.308 240.864 105.841Z" fill="#FFB573"/>
<path d="M241.944 98.5844L238.007 97.4265L237.081 101.904L241.944 103.525V98.5844Z" fill="#FFB573"/>
<path d="M292.124 103.757L292.664 98.3528L287.646 99.588C287.646 99.588 287.569 104.683 290.194 105.455L292.124 103.757Z" fill="#FFB573"/>
<path d="M290.272 94.57L286.952 96.114L287.647 99.5108L292.665 98.3528L290.272 94.57Z" fill="#FFB573"/>
<path d="M268.27 106.69C268.501 113.098 268.733 115.8 265.876 119.428C261.553 124.832 253.602 123.752 251.44 117.498C249.51 111.94 249.433 102.367 255.454 99.202C259.7 96.9632 265.027 98.5844 267.266 102.83C267.884 104.066 268.27 105.378 268.27 106.69Z" fill="#FFB573"/>
<path d="M265.49 119.428C271.82 116.726 275.912 110.936 274.214 101.981C272.515 93.412 266.725 92.5628 264.332 94.3384C261.939 96.114 255.994 93.4892 252.366 96.5C246.19 101.75 252.057 107.308 255.068 110.705C256.921 114.41 259.314 122.13 265.49 119.428Z" fill="#263238"/>
<path d="M262.866 100.437C265.027 103.216 269.042 103.757 271.821 101.518C274.6 99.3564 275.141 95.342 272.902 92.5628C270.817 89.8608 267.035 89.3204 264.255 91.2504C261.399 93.412 260.704 97.5036 262.866 100.437Z" fill="#FCB716"/>
<path d="M264.487 94.956C263.56 89.7836 268.501 85.7692 274.986 87.6992C281.471 89.6292 278.074 95.4192 276.684 100.051C275.295 104.683 278.846 109.084 280.313 105.532C281.779 101.981 279.309 100.9 279.309 100.9C279.309 100.9 286.257 102.676 279.772 110.55C273.287 118.425 267.497 109.701 269.041 104.606C270.508 100.592 265.413 99.8196 264.487 94.956Z" fill="#263238"/>
<path d="M258.002 96.886C254.991 95.342 249.973 94.0296 247.117 98.8932C245.727 101.209 246.268 104.297 246.268 104.297L255.069 104.915L258.002 96.886Z" fill="#263238"/>
<path d="M245.186 102.83C245.109 102.83 245.032 102.753 245.032 102.599C245.032 102.444 245.263 99.3564 247.116 97.4264C251.671 92.7172 256.998 96.6544 258.465 97.9668C258.542 98.044 258.542 98.1984 258.465 98.2756C258.387 98.3528 258.31 98.3528 258.233 98.2756C256.766 97.0404 251.671 93.2576 247.425 97.7352C245.649 99.588 245.418 102.676 245.418 102.676C245.418 102.753 245.341 102.83 245.186 102.83Z" fill="#263238"/>
<path d="M256.226 110.396C256.226 111.631 255.763 112.789 254.991 113.716C253.91 114.951 252.674 114.333 252.443 112.944C252.211 111.708 252.443 109.547 253.755 108.775C255.068 108.003 256.226 109.006 256.226 110.396Z" fill="#FFB573"/>
<path d="M254.76 169.145C254.76 169.145 255.146 213.998 259.083 239.011C262.248 259.238 268.038 305.944 268.038 305.944H276.839C276.839 305.944 277.688 260.859 276.067 240.864C272.053 190.298 282.475 180.802 274.06 169.145H254.76Z" fill="#263238"/>
<path opacity="0.1" d="M254.76 169.145C254.76 169.145 255.146 213.998 259.083 239.011C262.248 259.238 268.038 305.944 268.038 305.944H276.839C276.839 305.944 277.688 260.859 276.067 240.864C272.053 190.298 282.475 180.802 274.06 169.145H254.76Z" fill="#03343F"/>
<path opacity="0.3" d="M259.469 189.526C262.557 203.036 260.087 224.42 258.388 233.839C256.613 219.557 255.686 201.106 255.223 187.519C256.844 184.894 258.311 184.74 259.469 189.526Z" fill="#042A30"/>
<path d="M266.881 306.175H278.075L278.692 302.238L266.803 301.852L266.881 306.175Z" fill="#FCB716"/>
<path d="M270.045 131.24C271.126 129.156 276.761 127.843 279.926 127.843L282.242 138.188C282.242 138.188 276.066 147.375 273.519 146.371C270.431 145.213 267.806 135.795 270.045 131.24Z" fill="#FCB716"/>
<path opacity="0.4" d="M270.045 131.24C271.126 129.156 276.761 127.843 279.926 127.843L282.242 138.188C282.242 138.188 276.066 147.375 273.519 146.371C270.431 145.213 267.806 135.795 270.045 131.24Z" fill="black"/>
<path d="M263.559 303.628C263.559 303.55 263.559 303.55 263.559 303.473C263.559 303.396 263.482 303.396 263.405 303.396C263.096 303.473 260.24 303.859 259.854 304.708C259.776 304.863 259.776 305.017 259.854 305.172C260.008 305.403 260.24 305.558 260.548 305.635C261.398 305.712 262.787 304.477 263.559 303.628ZM260.085 304.863C260.317 304.4 261.861 304.014 262.942 303.782C261.938 304.786 261.012 305.403 260.471 305.326C260.317 305.326 260.162 305.172 260.008 305.017C260.085 304.94 260.085 304.863 260.085 304.863Z" fill="#FCB716"/>
<path d="M263.561 303.628C263.561 303.55 263.561 303.55 263.561 303.473C263.483 303.396 262.403 302.084 261.322 302.006C261.013 302.006 260.704 302.084 260.473 302.315C260.164 302.624 260.164 302.856 260.241 303.01C260.55 303.705 262.634 303.936 263.483 303.705C263.483 303.705 263.483 303.705 263.561 303.628ZM260.473 302.624C260.473 302.547 260.55 302.547 260.627 302.47C260.781 302.315 261.013 302.238 261.245 302.238C261.939 302.392 262.634 302.778 263.097 303.396C262.171 303.473 260.704 303.164 260.473 302.778C260.473 302.778 260.473 302.701 260.473 302.624Z" fill="#FCB716"/>
<path d="M270.277 300.926L264.332 303.55L261.708 298.069L258.234 290.89L257.848 290.04L263.792 287.416L264.255 288.342L267.575 295.29L270.277 300.926Z" fill="#FFB573"/>
<path opacity="0.2" d="M267.575 295.29L261.708 298.069L258.234 290.89L264.256 288.342L267.575 295.29Z" fill="black"/>
<path d="M247.888 169.145C247.888 169.145 228.974 216.16 234.147 238.239C238.779 258.234 259.237 296.062 259.237 296.062L267.188 292.125C267.188 292.125 254.528 246.422 253.138 236.541C250.436 217.241 267.652 189.989 267.652 169.222L247.888 169.145Z" fill="#263238"/>
<path opacity="0.1" d="M247.888 169.145C247.888 169.145 228.974 216.16 234.147 238.239C238.779 258.234 259.237 296.062 259.237 296.062L267.188 292.125C267.188 292.125 254.528 246.422 253.138 236.541C250.436 217.241 267.652 189.989 267.652 169.222L247.888 169.145Z" fill="#03343F"/>
<path d="M263.329 302.701L269.196 298.455C269.428 298.301 269.659 298.301 269.891 298.532L273.905 302.701C274.291 303.164 274.291 303.782 273.828 304.168L273.751 304.245C271.667 305.712 270.586 306.33 268.038 308.182C266.417 309.34 263.252 311.888 261.09 313.509C258.929 315.13 257.23 313.046 258.002 312.197C261.476 308.337 262.171 305.944 262.711 303.782C262.789 303.242 263.02 302.933 263.329 302.701Z" fill="#263238"/>
<path d="M258.696 297.76L268.887 293.051L267.574 288.882L256.612 293.9L258.696 297.76Z" fill="#FCB716"/>
<path d="M252.907 130.777C252.057 128.615 244.723 126.145 240.941 125.373L239.319 137.493C239.319 137.493 245.341 146.217 248.043 145.445C251.131 144.596 254.682 135.409 252.907 130.777Z" fill="#FCB716"/>
<path opacity="0.4" d="M252.907 130.777C252.057 128.615 244.723 126.145 240.941 125.373L239.319 137.493C239.319 137.493 245.341 146.217 248.043 145.445C251.131 144.596 254.682 135.409 252.907 130.777Z" fill="black"/>
<path d="M244.801 130.159C244.801 130.159 241.713 131.24 247.889 169.222H274.137C273.674 158.569 273.674 151.93 278.769 130.005C275.063 129.233 271.358 128.77 267.575 128.538C263.638 128.229 259.623 128.229 255.686 128.538C250.591 128.924 244.801 130.159 244.801 130.159Z" fill="#FCB716"/>
<path opacity="0.4" d="M244.801 130.159C244.801 130.159 241.713 131.24 247.889 169.222H274.137C273.674 158.569 273.674 151.93 278.769 130.005C275.063 129.233 271.358 128.77 267.575 128.538C263.638 128.229 259.623 128.229 255.686 128.538C250.591 128.924 244.801 130.159 244.801 130.159Z" fill="black"/>
<path d="M274.523 167.601L275.681 169.917C275.758 170.072 275.526 170.303 275.295 170.303H247.734C247.503 170.303 247.271 170.226 247.271 169.994L247.04 167.678C247.04 167.524 247.194 167.37 247.503 167.37H274.06C274.214 167.37 274.446 167.447 274.523 167.601Z" fill="#FCB716"/>
<path opacity="0.3" d="M274.523 167.601L275.681 169.917C275.758 170.072 275.526 170.303 275.295 170.303H247.734C247.503 170.303 247.271 170.226 247.271 169.994L247.04 167.678C247.04 167.524 247.194 167.37 247.503 167.37H274.06C274.214 167.37 274.446 167.447 274.523 167.601Z" fill="white"/>
<path d="M270.972 170.612H271.667C271.821 170.612 271.898 170.535 271.898 170.458L271.589 167.37C271.589 167.292 271.435 167.215 271.281 167.215H270.586C270.431 167.215 270.354 167.292 270.354 167.37L270.663 170.458C270.663 170.535 270.817 170.612 270.972 170.612Z" fill="#263238"/>
<path d="M253.679 170.612H254.373C254.528 170.612 254.605 170.535 254.605 170.458L254.296 167.37C254.296 167.292 254.142 167.215 253.987 167.215H253.293C253.138 167.215 253.061 167.292 253.061 167.37L253.37 170.458C253.447 170.535 253.524 170.612 253.679 170.612Z" fill="#263238"/>
</svg>
